<mxfile host="Electron" modified="2023-09-06T12:49:50.209Z" agent="Mozilla/5.0 (Windows NT 10.0; Win64; x64) AppleWebKit/537.36 (KHTML, like Gecko) draw.io/21.6.8 Chrome/114.0.5735.289 Electron/25.5.0 Safari/537.36" etag="lB2cm9sW4KR0DsSVGthN" version="21.6.8" type="device">
  <diagram name="第 1 页" id="hctPvwcnjKXvbneybjPy">
    <mxGraphModel dx="989" dy="610" grid="1" gridSize="10" guides="1" tooltips="1" connect="1" arrows="1" fold="1" page="1" pageScale="1" pageWidth="827" pageHeight="1169" math="0" shadow="0">
      <root>
        <mxCell id="0" />
        <mxCell id="1" parent="0" />
        <mxCell id="Lts-DtghqhFuT3vHORfy-21" value="" style="group" vertex="1" connectable="0" parent="1">
          <mxGeometry x="150" y="80" width="510" height="30" as="geometry" />
        </mxCell>
        <mxCell id="Lts-DtghqhFuT3vHORfy-8" value="&lt;div style=&quot;font-family: Consolas, &amp;quot;Courier New&amp;quot;, monospace; line-height: 19px;&quot;&gt;&lt;font style=&quot;background-color: rgb(255, 255, 255); font-size: 12px;&quot;&gt;&amp;lt;zlbytes&amp;gt;&lt;/font&gt;&lt;/div&gt;" style="rounded=0;whiteSpace=wrap;html=1;fontColor=#191919;" vertex="1" parent="Lts-DtghqhFuT3vHORfy-21">
          <mxGeometry width="80" height="30" as="geometry" />
        </mxCell>
        <mxCell id="Lts-DtghqhFuT3vHORfy-9" value="&lt;div style=&quot;font-family: Consolas, &amp;quot;Courier New&amp;quot;, monospace; line-height: 19px;&quot;&gt;&amp;lt;zltail&amp;gt;&lt;br&gt;&lt;/div&gt;" style="rounded=0;whiteSpace=wrap;html=1;fontColor=#191919;" vertex="1" parent="Lts-DtghqhFuT3vHORfy-21">
          <mxGeometry x="80" width="80" height="30" as="geometry" />
        </mxCell>
        <mxCell id="Lts-DtghqhFuT3vHORfy-10" value="&lt;div style=&quot;font-family: Consolas, &amp;quot;Courier New&amp;quot;, monospace; line-height: 19px;&quot;&gt;&amp;lt;zllen&amp;gt;&lt;br&gt;&lt;/div&gt;" style="rounded=0;whiteSpace=wrap;html=1;fontColor=#191919;" vertex="1" parent="Lts-DtghqhFuT3vHORfy-21">
          <mxGeometry x="160" width="80" height="30" as="geometry" />
        </mxCell>
        <mxCell id="Lts-DtghqhFuT3vHORfy-11" value="&lt;div style=&quot;font-family: Consolas, &amp;quot;Courier New&amp;quot;, monospace; line-height: 19px;&quot;&gt;&amp;lt;entry&amp;gt; &amp;lt;entry&amp;gt; ... &amp;lt;entry&amp;gt;&lt;br&gt;&lt;/div&gt;" style="rounded=0;whiteSpace=wrap;html=1;fontColor=#191919;" vertex="1" parent="Lts-DtghqhFuT3vHORfy-21">
          <mxGeometry x="240" width="190" height="30" as="geometry" />
        </mxCell>
        <mxCell id="Lts-DtghqhFuT3vHORfy-12" value="&lt;div style=&quot;font-family: Consolas, &amp;quot;Courier New&amp;quot;, monospace; line-height: 19px;&quot;&gt;&amp;lt;zlend&amp;gt;&lt;br&gt;&lt;/div&gt;" style="rounded=0;whiteSpace=wrap;html=1;fontColor=#191919;" vertex="1" parent="Lts-DtghqhFuT3vHORfy-21">
          <mxGeometry x="430" width="80" height="30" as="geometry" />
        </mxCell>
        <mxCell id="Lts-DtghqhFuT3vHORfy-27" value="" style="endArrow=none;html=1;rounded=0;entryX=0.25;entryY=1;entryDx=0;entryDy=0;exitX=1;exitY=0;exitDx=0;exitDy=0;dashed=1;fillColor=#e1d5e7;strokeColor=#9673a6;" edge="1" parent="1" source="Lts-DtghqhFuT3vHORfy-15" target="Lts-DtghqhFuT3vHORfy-11">
          <mxGeometry width="50" height="50" relative="1" as="geometry">
            <mxPoint x="480" y="170" as="sourcePoint" />
            <mxPoint x="400" y="120" as="targetPoint" />
          </mxGeometry>
        </mxCell>
        <mxCell id="Lts-DtghqhFuT3vHORfy-30" value="" style="group" vertex="1" connectable="0" parent="1">
          <mxGeometry x="150" y="180" width="255" height="50" as="geometry" />
        </mxCell>
        <mxCell id="Lts-DtghqhFuT3vHORfy-22" value="" style="group" vertex="1" connectable="0" parent="Lts-DtghqhFuT3vHORfy-30">
          <mxGeometry width="255" height="30" as="geometry" />
        </mxCell>
        <mxCell id="Lts-DtghqhFuT3vHORfy-13" value="&lt;div style=&quot;font-family: Consolas, &amp;quot;Courier New&amp;quot;, monospace; line-height: 19px;&quot;&gt;&lt;font color=&quot;#a680b8&quot; style=&quot;background-color: rgb(255, 255, 255); font-size: 12px;&quot;&gt;&amp;lt;prevlen&amp;gt;&lt;/font&gt;&lt;/div&gt;" style="rounded=0;whiteSpace=wrap;html=1;fontColor=#191919;" vertex="1" parent="Lts-DtghqhFuT3vHORfy-22">
          <mxGeometry width="80" height="30" as="geometry" />
        </mxCell>
        <mxCell id="Lts-DtghqhFuT3vHORfy-14" value="&lt;div style=&quot;font-family: Consolas, &amp;quot;Courier New&amp;quot;, monospace; line-height: 19px;&quot;&gt;&lt;font color=&quot;#a680b8&quot; style=&quot;background-color: rgb(255, 255, 255); font-size: 12px;&quot;&gt;&amp;lt;encoding&amp;gt;&lt;/font&gt;&lt;/div&gt;" style="rounded=0;whiteSpace=wrap;html=1;fontColor=#191919;" vertex="1" parent="Lts-DtghqhFuT3vHORfy-22">
          <mxGeometry x="80" width="80" height="30" as="geometry" />
        </mxCell>
        <mxCell id="Lts-DtghqhFuT3vHORfy-15" value="&lt;div style=&quot;font-family: Consolas, &amp;quot;Courier New&amp;quot;, monospace; line-height: 19px;&quot;&gt;&lt;font color=&quot;#a680b8&quot; style=&quot;background-color: rgb(255, 255, 255); font-size: 12px;&quot;&gt;&amp;lt;entry-data&amp;gt;&lt;/font&gt;&lt;/div&gt;" style="rounded=0;whiteSpace=wrap;html=1;fontColor=#191919;" vertex="1" parent="Lts-DtghqhFuT3vHORfy-22">
          <mxGeometry x="160" width="95" height="30" as="geometry" />
        </mxCell>
        <mxCell id="Lts-DtghqhFuT3vHORfy-24" value="&lt;font color=&quot;#a680b8&quot; style=&quot;font-size: 16px;&quot;&gt;&lt;b style=&quot;&quot;&gt;ZipList&lt;/b&gt;&lt;/font&gt;" style="text;whiteSpace=wrap;html=1;" vertex="1" parent="Lts-DtghqhFuT3vHORfy-30">
          <mxGeometry x="103.75" y="30" width="47.5" height="20" as="geometry" />
        </mxCell>
        <mxCell id="Lts-DtghqhFuT3vHORfy-26" value="" style="endArrow=none;html=1;rounded=0;exitX=0;exitY=0;exitDx=0;exitDy=0;entryX=0;entryY=1;entryDx=0;entryDy=0;dashed=1;fillColor=#e1d5e7;strokeColor=#9673a6;" edge="1" parent="Lts-DtghqhFuT3vHORfy-30" source="Lts-DtghqhFuT3vHORfy-13" target="Lts-DtghqhFuT3vHORfy-11">
          <mxGeometry width="50" height="50" relative="1" as="geometry">
            <mxPoint x="260" y="90" as="sourcePoint" />
            <mxPoint x="310" y="40" as="targetPoint" />
          </mxGeometry>
        </mxCell>
        <mxCell id="Lts-DtghqhFuT3vHORfy-31" value="" style="group" vertex="1" connectable="0" parent="1">
          <mxGeometry x="430" y="180" width="350" height="50" as="geometry" />
        </mxCell>
        <mxCell id="Lts-DtghqhFuT3vHORfy-23" value="" style="group" vertex="1" connectable="0" parent="Lts-DtghqhFuT3vHORfy-31">
          <mxGeometry width="350" height="30" as="geometry" />
        </mxCell>
        <mxCell id="Lts-DtghqhFuT3vHORfy-17" value="&lt;div style=&quot;font-family: Consolas, &amp;quot;Courier New&amp;quot;, monospace; line-height: 19px;&quot;&gt;&lt;font color=&quot;#97d077&quot; style=&quot;background-color: rgb(255, 255, 255); font-size: 12px;&quot;&gt;&amp;lt;encoding-type&amp;gt;&lt;/font&gt;&lt;/div&gt;" style="rounded=0;whiteSpace=wrap;html=1;fontColor=#191919;" vertex="1" parent="Lts-DtghqhFuT3vHORfy-23">
          <mxGeometry width="120" height="30" as="geometry" />
        </mxCell>
        <mxCell id="Lts-DtghqhFuT3vHORfy-19" value="&lt;div style=&quot;font-family: Consolas, &amp;quot;Courier New&amp;quot;, monospace; line-height: 19px;&quot;&gt;&lt;font color=&quot;#97d077&quot; style=&quot;background-color: rgb(255, 255, 255); font-size: 12px;&quot;&gt;&amp;lt;entry-data&amp;gt;&lt;/font&gt;&lt;/div&gt;" style="rounded=0;whiteSpace=wrap;html=1;fontColor=#191919;" vertex="1" parent="Lts-DtghqhFuT3vHORfy-23">
          <mxGeometry x="120" width="95" height="30" as="geometry" />
        </mxCell>
        <mxCell id="Lts-DtghqhFuT3vHORfy-20" value="&lt;div style=&quot;font-family: Consolas, &amp;quot;Courier New&amp;quot;, monospace; line-height: 19px;&quot;&gt;&lt;font color=&quot;#97d077&quot; style=&quot;background-color: rgb(255, 255, 255); font-size: 12px;&quot;&gt;&amp;lt;element-tot-len&amp;gt;&lt;/font&gt;&lt;/div&gt;" style="rounded=0;whiteSpace=wrap;html=1;fontColor=#191919;" vertex="1" parent="Lts-DtghqhFuT3vHORfy-23">
          <mxGeometry x="215" width="135" height="30" as="geometry" />
        </mxCell>
        <mxCell id="Lts-DtghqhFuT3vHORfy-25" value="&lt;font color=&quot;#97d077&quot; style=&quot;font-size: 16px;&quot;&gt;&lt;b&gt;ListPack&lt;/b&gt;&lt;/font&gt;" style="text;whiteSpace=wrap;html=1;" vertex="1" parent="Lts-DtghqhFuT3vHORfy-31">
          <mxGeometry x="140" y="30" width="47.5" height="20" as="geometry" />
        </mxCell>
        <mxCell id="Lts-DtghqhFuT3vHORfy-28" value="" style="endArrow=none;html=1;rounded=0;entryX=0.25;entryY=1;entryDx=0;entryDy=0;exitX=1;exitY=0;exitDx=0;exitDy=0;dashed=1;fillColor=#d5e8d4;strokeColor=#82b366;" edge="1" parent="Lts-DtghqhFuT3vHORfy-31" source="Lts-DtghqhFuT3vHORfy-20" target="Lts-DtghqhFuT3vHORfy-11">
          <mxGeometry width="50" height="50" relative="1" as="geometry">
            <mxPoint x="140" y="10" as="sourcePoint" />
            <mxPoint x="123" y="-60" as="targetPoint" />
          </mxGeometry>
        </mxCell>
        <mxCell id="Lts-DtghqhFuT3vHORfy-29" value="" style="endArrow=none;html=1;rounded=0;entryX=0;entryY=1;entryDx=0;entryDy=0;exitX=0;exitY=0;exitDx=0;exitDy=0;dashed=1;fillColor=#d5e8d4;strokeColor=#82b366;" edge="1" parent="1" source="Lts-DtghqhFuT3vHORfy-17" target="Lts-DtghqhFuT3vHORfy-11">
          <mxGeometry width="50" height="50" relative="1" as="geometry">
            <mxPoint x="730" y="210" as="sourcePoint" />
            <mxPoint x="480" y="140" as="targetPoint" />
          </mxGeometry>
        </mxCell>
      </root>
    </mxGraphModel>
  </diagram>
</mxfile>
